<svg width="41" height="32" viewBox="0 0 41 32" fill="none" xmlns="http://www.w3.org/2000/svg">
<path d="M39.6667 15.9998H33M36.3333 19.3332L36.3333 12.6665" stroke="#363853" stroke-width="2" stroke-linecap="round"/>
<path d="M7.66667 15.9998H1M4.33333 19.3332L4.33333 12.6665" stroke="#363853" stroke-width="2" stroke-linecap="round"/>
<path d="M8.6665 27.8524C8.6665 23.8306 11.4954 20.4049 15.3399 19.7711L15.6862 19.714C18.7647 19.2064 21.9016 19.2064 24.9801 19.714L25.3264 19.7711C29.171 20.4049 31.9998 23.8306 31.9998 27.8524C31.9998 29.5908 30.6357 31 28.953 31H11.7134C10.0306 31 8.6665 29.5908 8.6665 27.8524Z" stroke="#363853" stroke-width="2"/>
<path d="M27.1388 7.5625C27.1388 11.1869 24.0918 14.125 20.3332 14.125C16.5746 14.125 13.5276 11.1869 13.5276 7.5625C13.5276 3.93813 16.5746 1 20.3332 1C24.0918 1 27.1388 3.93813 27.1388 7.5625Z" stroke="#363853" stroke-width="2"/>
</svg>
