<svg width="40" height="40" viewBox="0 0 40 40" fill="none" xmlns="http://www.w3.org/2000/svg">
<circle cx="20" cy="20" r="20" fill="#E3C4A8"/>
<path d="M28.04 17.719C28.04 17.3048 27.7042 16.969 27.29 16.969C26.8758 16.969 26.54 17.3048 26.54 17.719H28.04ZM13.46 17.719C13.46 17.3048 13.1242 16.969 12.71 16.969C12.2958 16.969 11.96 17.3048 11.96 17.719H13.46ZM22.5132 28.7071L22.3408 27.9772L22.3408 27.9772L22.5132 28.7071ZM17.4867 28.7071L17.6592 27.9772L17.6592 27.9772L17.4867 28.7071ZM22.8284 13.0142L22.2962 13.5427L22.2962 13.5427L22.8284 13.0142ZM28.4678 19.7581C28.7596 20.0521 29.2345 20.0538 29.5284 19.7619C29.8224 19.4701 29.8241 18.9952 29.5322 18.7013L28.4678 19.7581ZM17.1716 13.0142L17.7038 13.5427L17.7038 13.5427L17.1716 13.0142ZM10.4678 18.7013C10.1759 18.9952 10.1776 19.4701 10.4716 19.7619C10.7655 20.0538 11.2404 20.0521 11.5322 19.7581L10.4678 18.7013ZM17.7184 26.3203L16.9813 26.1819L16.9813 26.1819L17.7184 26.3203ZM17.7378 26.2173L18.4749 26.3556L18.4749 26.3556L17.7378 26.2173ZM22.2622 26.2173L21.5251 26.3556L21.5251 26.3556L22.2622 26.2173ZM22.2816 26.3203L23.0187 26.1819L23.0187 26.1819L22.2816 26.3203ZM21.9918 28.5519L21.3146 28.2296L21.3146 28.2296L21.9918 28.5519ZM21.1978 28.475C21.0198 28.849 21.1787 29.2965 21.5527 29.4745C21.9267 29.6525 22.3742 29.4936 22.5522 29.1196L21.1978 28.475ZM18.0082 28.5519L17.331 28.8742L17.331 28.8742L18.0082 28.5519ZM17.4478 29.1196C17.6258 29.4936 18.0733 29.6525 18.4473 29.4745C18.8213 29.2965 18.9802 28.849 18.8022 28.475L17.4478 29.1196ZM19.3611 24.4426L19.1605 23.7199L19.1605 23.7199L19.3611 24.4426ZM20.6389 24.4426L20.8395 23.7199L20.8395 23.7199L20.6389 24.4426ZM26.54 17.719V22.6374H28.04V17.719H26.54ZM13.46 22.6374V17.719H11.96V22.6374H13.46ZM22.3408 27.9772C20.8011 28.3409 19.1988 28.3409 17.6592 27.9772L17.3143 29.437C19.0808 29.8543 20.9192 29.8543 22.6857 29.437L22.3408 27.9772ZM17.6592 27.9772C15.2026 27.3969 13.46 25.1877 13.46 22.6374H11.96C11.96 25.8765 14.1742 28.6952 17.3143 29.437L17.6592 27.9772ZM22.6857 29.437C25.8258 28.6952 28.04 25.8765 28.04 22.6374H26.54C26.54 25.1877 24.7974 27.3969 22.3408 27.9772L22.6857 29.437ZM22.2962 13.5427L28.4678 19.7581L29.5322 18.7013L23.3606 12.4858L22.2962 13.5427ZM16.6394 12.4858L10.4678 18.7013L11.5322 19.7581L17.7038 13.5427L16.6394 12.4858ZM23.3606 12.4858C22.7089 11.8295 22.1681 11.2825 21.6818 10.9089C21.1785 10.5221 20.6458 10.25 20 10.25V11.75C20.1827 11.75 20.3974 11.8136 20.7679 12.0983C21.1555 12.3961 21.6146 12.8562 22.2962 13.5427L23.3606 12.4858ZM17.7038 13.5427C18.3854 12.8562 18.8445 12.3961 19.2321 12.0983C19.6026 11.8136 19.8173 11.75 20 11.75V10.25C19.3542 10.25 18.8215 10.5221 18.3182 10.9089C17.8319 11.2825 17.2911 11.8295 16.6394 12.4858L17.7038 13.5427ZM18.4555 26.4587L18.4749 26.3556L17.0006 26.0789L16.9813 26.1819L18.4555 26.4587ZM21.5251 26.3556L21.5445 26.4587L23.0187 26.1819L22.9994 26.0789L21.5251 26.3556ZM21.3146 28.2296L21.1978 28.475L22.5522 29.1196L22.669 28.8742L21.3146 28.2296ZM17.331 28.8742L17.4478 29.1196L18.8022 28.475L18.6854 28.2296L17.331 28.8742ZM21.5445 26.4587C21.6571 27.0588 21.5764 27.6793 21.3146 28.2296L22.669 28.8742C23.0675 28.0369 23.1899 27.0937 23.0187 26.1819L21.5445 26.4587ZM16.9813 26.1819C16.8101 27.0937 16.9325 28.0369 17.331 28.8742L18.6854 28.2296C18.4236 27.6793 18.3429 27.0588 18.4556 26.4587L16.9813 26.1819ZM19.5616 25.1652C19.8485 25.0856 20.1515 25.0856 20.4384 25.1652L20.8395 23.7199C20.2901 23.5674 19.7099 23.5674 19.1605 23.7199L19.5616 25.1652ZM22.9994 26.0789C22.7865 24.9449 21.9504 24.0281 20.8395 23.7199L20.4384 25.1652C20.9935 25.3193 21.417 25.7794 21.5251 26.3556L22.9994 26.0789ZM18.4749 26.3556C18.583 25.7794 19.0065 25.3193 19.5616 25.1652L19.1605 23.7199C18.0496 24.0281 17.2135 24.9449 17.0006 26.0789L18.4749 26.3556Z" fill="white"/>
</svg>
