<svg width="40" height="40" viewBox="0 0 40 40" fill="none" xmlns="http://www.w3.org/2000/svg">
<circle cx="20" cy="20" r="20" fill="#E3C4A8"/>
<path d="M22.5001 29.7138L22.6698 30.4444L22.5001 29.7138ZM17.4999 29.7138L17.6696 28.9833L17.4999 29.7138ZM17.4999 14.47L17.6696 15.2006L17.4999 14.47ZM22.5001 14.47L22.3304 15.2006L22.5001 14.47ZM27.7231 19.7243L26.9933 19.8972L26.9933 19.8972L27.7231 19.7243ZM27.7231 24.4595L26.9933 24.2866L26.9933 24.2866L27.7231 24.4595ZM12.2769 24.4595L13.0067 24.2866L13.0067 24.2866L12.2769 24.4595ZM12.2769 19.7243L13.0067 19.8972L13.0067 19.8972L12.2769 19.7243ZM27.6669 24.6965L28.3967 24.8693L28.3967 24.8693L27.6669 24.6965ZM27.6669 19.4874L28.3967 19.3145L28.3967 19.3145L27.6669 19.4874ZM12.3331 19.4874L11.6033 19.3145L11.6033 19.3145L12.3331 19.4874ZM12.3331 24.6965L11.6033 24.8693L11.6033 24.8693L12.3331 24.6965ZM23.55 14.7996L23.2714 15.4959L24.2979 15.9068L24.3 14.8011L23.55 14.7996ZM23.5503 13.3571L24.3003 13.3571L24.3003 13.3571L23.5503 13.3571ZM20.7308 10.0692L20.8716 9.33251L20.8716 9.33251L20.7308 10.0692ZM19.2692 10.0692L19.1284 9.33251L19.1284 9.33251L19.2692 10.0692ZM16.45 14.7996L15.7 14.8011L15.7021 15.9068L16.7286 15.4959L16.45 14.7996ZM18.2249 19.9276C17.8107 19.9276 17.4749 20.2634 17.4749 20.6776C17.4749 21.0918 17.8107 21.4276 18.2249 21.4276V19.9276ZM21.7751 21.4276C22.1893 21.4276 22.5251 21.0918 22.5251 20.6776C22.5251 20.2634 22.1893 19.9276 21.7751 19.9276V21.4276ZM18.5799 23.3218C18.1657 23.3218 17.8299 23.6576 17.8299 24.0718C17.8299 24.486 18.1657 24.8218 18.5799 24.8218V23.3218ZM21.4201 24.8218C21.8343 24.8218 22.1701 24.486 22.1701 24.0718C22.1701 23.6576 21.8343 23.3218 21.4201 23.3218V24.8218ZM13.0629 24.5236L13.0067 24.2866L11.5471 24.6324L11.6033 24.8693L13.0629 24.5236ZM13.0067 19.8972L13.0629 19.6603L11.6033 19.3145L11.5471 19.5515L13.0067 19.8972ZM26.9371 19.6603L26.9933 19.8972L28.4529 19.5515L28.3967 19.3145L26.9371 19.6603ZM26.9933 24.2866L26.9371 24.5236L28.3967 24.8693L28.4529 24.6324L26.9933 24.2866ZM22.3304 28.9833C20.7992 29.3389 19.2008 29.3389 17.6696 28.9833L17.3302 30.4444C19.0847 30.8519 20.9153 30.8519 22.6698 30.4444L22.3304 28.9833ZM17.6696 15.2006C19.2008 14.8449 20.7992 14.8449 22.3304 15.2006L22.6698 13.7395C20.9153 13.332 19.0847 13.332 17.3302 13.7395L17.6696 15.2006ZM26.9933 19.8972C27.3356 21.3422 27.3356 22.8416 26.9933 24.2866L28.4529 24.6324C28.849 22.96 28.849 21.2238 28.4529 19.5515L26.9933 19.8972ZM13.0067 24.2866C12.6644 22.8416 12.6644 21.3422 13.0067 19.8972L11.5471 19.5515C11.151 21.2238 11.151 22.96 11.5471 24.6324L13.0067 24.2866ZM26.9371 24.5236C26.4199 26.7069 24.6464 28.4453 22.3304 28.9833L22.6698 30.4444C25.5118 29.7843 27.7415 27.6353 28.3967 24.8693L26.9371 24.5236ZM28.3967 19.3145C27.7415 16.5485 25.5118 14.3996 22.6698 13.7395L22.3304 15.2006C24.6464 15.7385 26.4199 17.4769 26.9371 19.6603L28.3967 19.3145ZM13.0629 19.6603C13.5801 17.4769 15.3536 15.7385 17.6696 15.2006L17.3302 13.7395C14.4882 14.3996 12.2585 16.5485 11.6033 19.3145L13.0629 19.6603ZM11.6033 24.8693C12.2585 27.6353 14.4882 29.7843 17.3302 30.4444L17.6696 28.9833C15.3536 28.4453 13.5801 26.7069 13.0629 24.5236L11.6033 24.8693ZM24.3 14.8011C24.3003 14.6897 24.3003 14.5741 24.3003 14.455H22.8003C22.8003 14.5744 22.8003 14.6885 22.8 14.7982L24.3 14.8011ZM24.3003 14.455V13.3571H22.8003V14.455H24.3003ZM24.3003 13.3571C24.3003 11.3759 22.8415 9.70913 20.8716 9.33251L20.5899 10.8058C21.8989 11.0561 22.8003 12.1417 22.8003 13.3571L24.3003 13.3571ZM20.8716 9.33251C20.2962 9.22249 19.7038 9.22249 19.1284 9.33251L19.4101 10.8058C19.7994 10.7314 20.2006 10.7314 20.5899 10.8058L20.8716 9.33251ZM19.1284 9.33251C17.1585 9.70913 15.6997 11.3759 15.6997 13.3571H17.1997C17.1997 12.1417 18.1011 11.0561 19.4101 10.8058L19.1284 9.33251ZM15.6997 13.3571V14.455H17.1997V13.3571H15.6997ZM15.6997 14.455C15.6997 14.5741 15.6997 14.6897 15.7 14.8011L17.2 14.7982C17.1997 14.6885 17.1997 14.5744 17.1997 14.455H15.6997ZM16.7286 15.4959C17.0303 15.3752 17.3447 15.276 17.6696 15.2006L17.3302 13.7395C16.9308 13.8322 16.5437 13.9543 16.1713 14.1033L16.7286 15.4959ZM22.3304 15.2006C22.6553 15.276 22.9697 15.3752 23.2714 15.4959L23.8287 14.1033C23.4563 13.9543 23.0692 13.8322 22.6698 13.7395L22.3304 15.2006ZM18.2249 21.4276H21.7751V19.9276H18.2249V21.4276ZM18.5799 24.8218H21.4201V23.3218H18.5799V24.8218Z" fill="white"/>
</svg>
