<svg width="41" height="45" viewBox="0 0 41 45" fill="none" xmlns="http://www.w3.org/2000/svg">
<path d="M39.6667 28.9998H33M36.3333 32.3332L36.3333 25.6665" stroke="#363853" stroke-width="2" stroke-linecap="round"/>
<path d="M23.3332 4.33333H16.6665M19.9998 7.66667L19.9998 1" stroke="#363853" stroke-width="2" stroke-linecap="round"/>
<path d="M7.66667 28.9998H1M4.33333 32.3332L4.33333 25.6665" stroke="#363853" stroke-width="2" stroke-linecap="round"/>
<path d="M8.6665 40.8524C8.6665 36.8306 11.4954 33.4049 15.3399 32.7711L15.6862 32.714C18.7647 32.2064 21.9016 32.2064 24.9801 32.714L25.3264 32.7711C29.171 33.4049 31.9998 36.8306 31.9998 40.8524C31.9998 42.5908 30.6357 44 28.953 44H11.7134C10.0306 44 8.6665 42.5908 8.6665 40.8524Z" stroke="#363853" stroke-width="2"/>
<path d="M27.1388 20.5625C27.1388 24.1869 24.0918 27.125 20.3332 27.125C16.5746 27.125 13.5276 24.1869 13.5276 20.5625C13.5276 16.9381 16.5746 14 20.3332 14C24.0918 14 27.1388 16.9381 27.1388 20.5625Z" stroke="#363853" stroke-width="2"/>
</svg>
