<svg width="32" height="32" viewBox="0 0 32 32" fill="none" xmlns="http://www.w3.org/2000/svg">
<path d="M31.0002 16H24.3335M27.6668 19.3333L27.6668 12.6666" stroke="#363853" stroke-width="2" stroke-linecap="round"/>
<path d="M1 27.8524C1 23.8306 3.82888 20.4049 7.6734 19.7711L8.0197 19.714C11.0982 19.2064 14.2351 19.2064 17.3136 19.714L17.6599 19.7711C21.5045 20.4049 24.3333 23.8306 24.3333 27.8524C24.3333 29.5908 22.9692 31 21.2865 31H4.04688C2.36414 31 1 29.5908 1 27.8524Z" stroke="#363853" stroke-width="2"/>
<path d="M19.4723 7.5625C19.4723 11.1869 16.4253 14.125 12.6667 14.125C8.9081 14.125 5.86115 11.1869 5.86115 7.5625C5.86115 3.93813 8.9081 1 12.6667 1C16.4253 1 19.4723 3.93813 19.4723 7.5625Z" stroke="#363853" stroke-width="2"/>
</svg>
