<svg width="40" height="40" viewBox="0 0 40 40" fill="none" xmlns="http://www.w3.org/2000/svg">
<circle cx="20" cy="20" r="20" fill="#E3C4A8"/>
<path d="M11 26.433C11 24.4308 12.4549 22.7254 14.432 22.4098L14.6101 22.3814C16.1934 22.1287 17.8066 22.1287 19.3899 22.3814L19.568 22.4098C21.5451 22.7254 23 24.4308 23 26.433C23 27.2984 22.2984 28 21.433 28H12.567C11.7016 28 11 27.2984 11 26.433Z" stroke="white" stroke-width="1.5"/>
<path d="M20.5 15.5C20.5 17.433 18.933 19 17 19C15.067 19 13.5 17.433 13.5 15.5C13.5 13.567 15.067 12 17 12C18.933 12 20.5 13.567 20.5 15.5Z" stroke="white" stroke-width="1.5"/>
<path d="M23 19C24.933 19 26.5 17.433 26.5 15.5C26.5 13.567 24.933 12 23 12M25.3899 28H27.433C28.2984 28 29 27.2984 29 26.433C29 24.4308 27.5451 22.7254 25.568 22.4098V22.4098C25.4494 22.3909 25.3293 22.3814 25.2093 22.3814C24.8895 22.3814 24.7902 22.3814 24.2412 22.3814" stroke="white" stroke-width="1.5" stroke-linecap="round"/>
</svg>
